<?xml version="1.0" standalone="no"?>
<!DOCTYPE svg PUBLIC "-//W3C//DTD SVG 20010904//EN"
 "http://www.w3.org/TR/2001/REC-SVG-20010904/DTD/svg10.dtd">
<svg version="1.0" xmlns="http://www.w3.org/2000/svg"
 width="700.000000pt" height="700.000000pt" viewBox="0 0 700.000000 700.000000"
 preserveAspectRatio="xMidYMid meet">
<metadata>
Created by potrace 1.14, written by Peter Selinger 2001-2017
</metadata>
<g transform="translate(0.000000,700.000000) scale(0.100000,-0.100000)"
fill="#000000" stroke="none">
<path d="M3059 5892 c-18 -2 -32 -14 -46 -40 -11 -20 -53 -93 -93 -162 -40
-69 -84 -145 -98 -170 -42 -74 -341 -594 -352 -610 -15 -24 -164 -283 -178
-310 -7 -13 -23 -40 -35 -60 -12 -19 -31 -51 -42 -71 -11 -20 -58 -102 -105
-182 -47 -81 -89 -155 -95 -165 -5 -10 -36 -64 -69 -120 -32 -56 -56 -109 -52
-117 3 -8 58 -106 122 -217 64 -112 125 -216 134 -233 10 -16 31 -54 49 -83
17 -29 31 -55 31 -58 0 -3 8 -18 19 -32 10 -15 31 -51 47 -80 34 -62 37 -68
87 -148 20 -34 37 -64 37 -68 0 -3 15 -29 33 -58 19 -29 47 -78 64 -108 17
-30 89 -156 161 -280 320 -553 371 -644 367 -649 -3 -3 -334 -5 -735 -5 l-729
-1 23 40 c49 86 74 129 216 375 81 140 157 271 168 290 10 19 50 87 87 150 69
117 88 151 126 218 12 20 41 71 65 113 24 42 44 79 44 82 0 4 -193 7 -429 7
l-429 0 -20 -32 c-11 -18 -31 -53 -44 -78 -23 -40 -225 -390 -267 -461 -9 -15
-45 -79 -81 -141 -35 -62 -69 -121 -75 -130 -5 -9 -17 -29 -26 -45 -8 -15 -50
-87 -92 -160 -42 -72 -77 -135 -77 -140 0 -5 18 -40 41 -78 22 -39 56 -97 74
-130 18 -33 108 -188 198 -345 l166 -285 1551 -1 c1126 0 1550 3 1547 11 -3 6
-122 213 -264 460 -256 444 -424 735 -571 990 -41 72 -83 144 -92 160 -10 17
-41 71 -70 120 -29 50 -62 108 -75 130 -12 22 -73 127 -134 233 -61 106 -121
209 -132 230 -12 20 -73 127 -137 236 -63 109 -115 204 -115 210 0 6 65 124
145 261 79 138 245 424 368 638 123 213 227 387 231 387 5 0 84 -132 175 -295
6 -11 44 -76 84 -145 40 -69 84 -145 98 -170 13 -25 55 -97 92 -160 37 -63
154 -266 260 -450 106 -184 292 -506 413 -715 121 -209 228 -396 239 -415 11
-19 37 -64 58 -100 21 -36 47 -81 58 -100 11 -19 86 -150 167 -290 81 -140
157 -271 167 -290 11 -19 38 -65 59 -102 22 -36 39 -70 39 -75 0 -4 -166 -8
-369 -7 -204 0 -368 -2 -367 -5 2 -4 46 -80 99 -171 52 -91 108 -188 123 -216
16 -28 69 -120 118 -205 l90 -155 324 0 c278 1 326 3 333 16 5 8 64 112 132
230 290 505 337 588 337 596 0 5 -23 47 -50 93 -28 46 -50 85 -50 86 0 1 -45
80 -101 176 -104 180 -242 418 -276 479 -11 19 -44 75 -72 123 -28 49 -51 93
-51 98 0 5 -4 9 -10 9 -5 0 -10 4 -10 10 0 5 -14 33 -31 62 -18 29 -41 69 -52
88 -11 19 -103 179 -204 355 -367 635 -451 781 -471 815 -10 19 -104 181 -207
360 -392 678 -514 889 -596 1032 l-84 148 -90 0 c-362 4 -794 4 -816 2z"/>
</g>
</svg>
